G04 #@! TF.GenerationSoftware,KiCad,Pcbnew,(5.1.5)-3*
G04 #@! TF.CreationDate,2020-05-02T00:05:06+08:00*
G04 #@! TF.ProjectId,uartIsolator,75617274-4973-46f6-9c61-746f722e6b69,rev?*
G04 #@! TF.SameCoordinates,Original*
G04 #@! TF.FileFunction,Copper,L2,Bot*
G04 #@! TF.FilePolarity,Positive*
%FSLAX46Y46*%
G04 Gerber Fmt 4.6, Leading zero omitted, Abs format (unit mm)*
G04 Created by KiCad (PCBNEW (5.1.5)-3) date 2020-05-02 00:05:06*
%MOMM*%
%LPD*%
G04 APERTURE LIST*
%ADD10O,1.600000X1.600000*%
%ADD11R,1.600000X1.600000*%
%ADD12C,1.600000*%
%ADD13C,3.000000*%
%ADD14R,3.000000X3.000000*%
%ADD15C,1.000000*%
%ADD16C,0.500000*%
G04 APERTURE END LIST*
D10*
X167620000Y-68580000D03*
X175240000Y-66040000D03*
X167620000Y-66040000D03*
D11*
X175240000Y-68580000D03*
D10*
X175260000Y-74930000D03*
X167640000Y-77470000D03*
X175260000Y-77470000D03*
D11*
X167640000Y-74930000D03*
D10*
X180340000Y-68580000D03*
D12*
X190500000Y-68580000D03*
D10*
X190500000Y-77470000D03*
D12*
X180340000Y-77470000D03*
D10*
X151130000Y-66040000D03*
D12*
X161290000Y-66040000D03*
D10*
X151130000Y-74930000D03*
D12*
X161290000Y-74930000D03*
D13*
X200660000Y-80010000D03*
D14*
X200660000Y-64770000D03*
D13*
X200660000Y-74930000D03*
X200660000Y-69850000D03*
X143510000Y-80010000D03*
D14*
X143510000Y-64770000D03*
D13*
X143510000Y-74930000D03*
X143510000Y-69850000D03*
D15*
X167640000Y-77470000D02*
X167640000Y-78740000D01*
X166370000Y-80010000D02*
X143510000Y-80010000D01*
X167640000Y-78740000D02*
X166370000Y-80010000D01*
X151130000Y-66040000D02*
X151130000Y-63500000D01*
X151130000Y-63500000D02*
X148590000Y-60960000D01*
X148590000Y-60960000D02*
X139700000Y-60960000D01*
X139700000Y-60960000D02*
X137160000Y-63500000D01*
X137160000Y-63500000D02*
X137160000Y-78740000D01*
X138430000Y-80010000D02*
X143510000Y-80010000D01*
X137160000Y-78740000D02*
X138430000Y-80010000D01*
D16*
X167620000Y-68580000D02*
X167620000Y-69870000D01*
X167620000Y-69870000D02*
X165100000Y-72390000D01*
X165100000Y-72390000D02*
X140970000Y-72390000D01*
X140970000Y-72390000D02*
X139700000Y-71120000D01*
X139700000Y-71120000D02*
X139700000Y-66040000D01*
X140970000Y-64770000D02*
X143510000Y-64770000D01*
X139700000Y-66040000D02*
X140970000Y-64770000D01*
D15*
X143510000Y-74930000D02*
X151130000Y-74930000D01*
X161290000Y-66040000D02*
X161290000Y-68580000D01*
X160020000Y-69850000D02*
X143510000Y-69850000D01*
X161290000Y-68580000D02*
X160020000Y-69850000D01*
X161290000Y-66040000D02*
X167620000Y-66040000D01*
X190500000Y-78740000D02*
X190500000Y-77470000D01*
X200660000Y-80010000D02*
X191770000Y-80010000D01*
X191770000Y-80010000D02*
X190500000Y-78740000D01*
X175240000Y-62250000D02*
X175240000Y-66040000D01*
X176530000Y-60960000D02*
X175240000Y-62250000D01*
X205740000Y-78740000D02*
X205740000Y-63500000D01*
X205740000Y-63500000D02*
X203200000Y-60960000D01*
X200660000Y-80010000D02*
X204470000Y-80010000D01*
X204470000Y-80010000D02*
X205740000Y-78740000D01*
X203200000Y-60960000D02*
X176530000Y-60960000D01*
X176530000Y-72390000D02*
X175260000Y-73660000D01*
X187960000Y-64770000D02*
X185420000Y-67310000D01*
X200660000Y-64770000D02*
X187960000Y-64770000D01*
X175260000Y-73660000D02*
X175260000Y-74930000D01*
X185420000Y-67310000D02*
X185420000Y-69850000D01*
X185420000Y-69850000D02*
X182880000Y-72390000D01*
X182880000Y-72390000D02*
X176530000Y-72390000D01*
X175260000Y-77470000D02*
X180340000Y-77470000D01*
X180340000Y-77470000D02*
X180340000Y-76200000D01*
X180340000Y-76200000D02*
X181610000Y-74930000D01*
X181610000Y-74930000D02*
X200660000Y-74930000D01*
X199390000Y-68580000D02*
X200660000Y-69850000D01*
X190500000Y-68580000D02*
X199390000Y-68580000D01*
X161290000Y-74930000D02*
X167640000Y-74930000D01*
X175240000Y-68580000D02*
X180340000Y-68580000D01*
M02*
