G04 #@! TF.GenerationSoftware,KiCad,Pcbnew,(5.1.5)-3*
G04 #@! TF.CreationDate,2020-05-02T00:05:06+08:00*
G04 #@! TF.ProjectId,uartIsolator,75617274-4973-46f6-9c61-746f722e6b69,rev?*
G04 #@! TF.SameCoordinates,Original*
G04 #@! TF.FileFunction,Legend,Top*
G04 #@! TF.FilePolarity,Positive*
%FSLAX46Y46*%
G04 Gerber Fmt 4.6, Leading zero omitted, Abs format (unit mm)*
G04 Created by KiCad (PCBNEW (5.1.5)-3) date 2020-05-02 00:05:06*
%MOMM*%
%LPD*%
G04 APERTURE LIST*
%ADD10C,0.120000*%
%ADD11C,0.150000*%
G04 APERTURE END LIST*
D10*
X168780000Y-69910000D02*
X170430000Y-69910000D01*
X168780000Y-64710000D02*
X168780000Y-69910000D01*
X174080000Y-64710000D02*
X168780000Y-64710000D01*
X174080000Y-69910000D02*
X174080000Y-64710000D01*
X172430000Y-69910000D02*
X174080000Y-69910000D01*
X170430000Y-69910000D02*
G75*
G02X172430000Y-69910000I1000000J0D01*
G01*
X174100000Y-73600000D02*
X172450000Y-73600000D01*
X174100000Y-78800000D02*
X174100000Y-73600000D01*
X168800000Y-78800000D02*
X174100000Y-78800000D01*
X168800000Y-73600000D02*
X168800000Y-78800000D01*
X170450000Y-73600000D02*
X168800000Y-73600000D01*
X172450000Y-73600000D02*
G75*
G02X170450000Y-73600000I-1000000J0D01*
G01*
X181380000Y-68580000D02*
X182150000Y-68580000D01*
X189460000Y-68580000D02*
X188690000Y-68580000D01*
X182150000Y-69950000D02*
X188690000Y-69950000D01*
X182150000Y-67210000D02*
X182150000Y-69950000D01*
X188690000Y-67210000D02*
X182150000Y-67210000D01*
X188690000Y-69950000D02*
X188690000Y-67210000D01*
X189460000Y-77470000D02*
X188690000Y-77470000D01*
X181380000Y-77470000D02*
X182150000Y-77470000D01*
X188690000Y-76100000D02*
X182150000Y-76100000D01*
X188690000Y-78840000D02*
X188690000Y-76100000D01*
X182150000Y-78840000D02*
X188690000Y-78840000D01*
X182150000Y-76100000D02*
X182150000Y-78840000D01*
X152170000Y-66040000D02*
X152940000Y-66040000D01*
X160250000Y-66040000D02*
X159480000Y-66040000D01*
X152940000Y-67410000D02*
X159480000Y-67410000D01*
X152940000Y-64670000D02*
X152940000Y-67410000D01*
X159480000Y-64670000D02*
X152940000Y-64670000D01*
X159480000Y-67410000D02*
X159480000Y-64670000D01*
X152170000Y-74930000D02*
X152940000Y-74930000D01*
X160250000Y-74930000D02*
X159480000Y-74930000D01*
X152940000Y-76300000D02*
X159480000Y-76300000D01*
X152940000Y-73560000D02*
X152940000Y-76300000D01*
X159480000Y-73560000D02*
X152940000Y-73560000D01*
X159480000Y-76300000D02*
X159480000Y-73560000D01*
X196850000Y-62230000D02*
X196850000Y-82550000D01*
X204470000Y-62230000D02*
X204470000Y-82550000D01*
X198120000Y-82550000D02*
X198120000Y-62230000D01*
X196850000Y-82550000D02*
X204470000Y-82550000D01*
X204470000Y-62230000D02*
X196850000Y-62230000D01*
X139700000Y-62230000D02*
X139700000Y-82550000D01*
X147320000Y-62230000D02*
X147320000Y-82550000D01*
X140970000Y-82550000D02*
X140970000Y-62230000D01*
X139700000Y-82550000D02*
X147320000Y-82550000D01*
X147320000Y-62230000D02*
X139700000Y-62230000D01*
D11*
X170668095Y-61682380D02*
X170668095Y-62491904D01*
X170715714Y-62587142D01*
X170763333Y-62634761D01*
X170858571Y-62682380D01*
X171049047Y-62682380D01*
X171144285Y-62634761D01*
X171191904Y-62587142D01*
X171239523Y-62491904D01*
X171239523Y-61682380D01*
X172239523Y-62682380D02*
X171668095Y-62682380D01*
X171953809Y-62682380D02*
X171953809Y-61682380D01*
X171858571Y-61825238D01*
X171763333Y-61920476D01*
X171668095Y-61968095D01*
X170688095Y-72052380D02*
X170688095Y-72861904D01*
X170735714Y-72957142D01*
X170783333Y-73004761D01*
X170878571Y-73052380D01*
X171069047Y-73052380D01*
X171164285Y-73004761D01*
X171211904Y-72957142D01*
X171259523Y-72861904D01*
X171259523Y-72052380D01*
X171688095Y-72147619D02*
X171735714Y-72100000D01*
X171830952Y-72052380D01*
X172069047Y-72052380D01*
X172164285Y-72100000D01*
X172211904Y-72147619D01*
X172259523Y-72242857D01*
X172259523Y-72338095D01*
X172211904Y-72480952D01*
X171640476Y-73052380D01*
X172259523Y-73052380D01*
X185253333Y-71402380D02*
X184920000Y-70926190D01*
X184681904Y-71402380D02*
X184681904Y-70402380D01*
X185062857Y-70402380D01*
X185158095Y-70450000D01*
X185205714Y-70497619D01*
X185253333Y-70592857D01*
X185253333Y-70735714D01*
X185205714Y-70830952D01*
X185158095Y-70878571D01*
X185062857Y-70926190D01*
X184681904Y-70926190D01*
X186110476Y-70735714D02*
X186110476Y-71402380D01*
X185872380Y-70354761D02*
X185634285Y-71069047D01*
X186253333Y-71069047D01*
X185253333Y-75552380D02*
X184920000Y-75076190D01*
X184681904Y-75552380D02*
X184681904Y-74552380D01*
X185062857Y-74552380D01*
X185158095Y-74600000D01*
X185205714Y-74647619D01*
X185253333Y-74742857D01*
X185253333Y-74885714D01*
X185205714Y-74980952D01*
X185158095Y-75028571D01*
X185062857Y-75076190D01*
X184681904Y-75076190D01*
X185586666Y-74552380D02*
X186205714Y-74552380D01*
X185872380Y-74933333D01*
X186015238Y-74933333D01*
X186110476Y-74980952D01*
X186158095Y-75028571D01*
X186205714Y-75123809D01*
X186205714Y-75361904D01*
X186158095Y-75457142D01*
X186110476Y-75504761D01*
X186015238Y-75552380D01*
X185729523Y-75552380D01*
X185634285Y-75504761D01*
X185586666Y-75457142D01*
X156043333Y-68862380D02*
X155710000Y-68386190D01*
X155471904Y-68862380D02*
X155471904Y-67862380D01*
X155852857Y-67862380D01*
X155948095Y-67910000D01*
X155995714Y-67957619D01*
X156043333Y-68052857D01*
X156043333Y-68195714D01*
X155995714Y-68290952D01*
X155948095Y-68338571D01*
X155852857Y-68386190D01*
X155471904Y-68386190D01*
X156424285Y-67957619D02*
X156471904Y-67910000D01*
X156567142Y-67862380D01*
X156805238Y-67862380D01*
X156900476Y-67910000D01*
X156948095Y-67957619D01*
X156995714Y-68052857D01*
X156995714Y-68148095D01*
X156948095Y-68290952D01*
X156376666Y-68862380D01*
X156995714Y-68862380D01*
X156043333Y-77752380D02*
X155710000Y-77276190D01*
X155471904Y-77752380D02*
X155471904Y-76752380D01*
X155852857Y-76752380D01*
X155948095Y-76800000D01*
X155995714Y-76847619D01*
X156043333Y-76942857D01*
X156043333Y-77085714D01*
X155995714Y-77180952D01*
X155948095Y-77228571D01*
X155852857Y-77276190D01*
X155471904Y-77276190D01*
X156995714Y-77752380D02*
X156424285Y-77752380D01*
X156710000Y-77752380D02*
X156710000Y-76752380D01*
X156614761Y-76895238D01*
X156519523Y-76990476D01*
X156424285Y-77038095D01*
X204912380Y-72703333D02*
X205626666Y-72703333D01*
X205769523Y-72750952D01*
X205864761Y-72846190D01*
X205912380Y-72989047D01*
X205912380Y-73084285D01*
X205007619Y-72274761D02*
X204960000Y-72227142D01*
X204912380Y-72131904D01*
X204912380Y-71893809D01*
X204960000Y-71798571D01*
X205007619Y-71750952D01*
X205102857Y-71703333D01*
X205198095Y-71703333D01*
X205340952Y-71750952D01*
X205912380Y-72322380D01*
X205912380Y-71703333D01*
X147762380Y-72703333D02*
X148476666Y-72703333D01*
X148619523Y-72750952D01*
X148714761Y-72846190D01*
X148762380Y-72989047D01*
X148762380Y-73084285D01*
X148762380Y-71703333D02*
X148762380Y-72274761D01*
X148762380Y-71989047D02*
X147762380Y-71989047D01*
X147905238Y-72084285D01*
X148000476Y-72179523D01*
X148048095Y-72274761D01*
M02*
