M48
; DRILL file {KiCad (5.1.5)-3} date 05/02/20 00:05:22
; FORMAT={-:-/ absolute / inch / decimal}
; #@! TF.CreationDate,2020-05-02T00:05:22+08:00
; #@! TF.GenerationSoftware,Kicad,Pcbnew,(5.1.5)-3
; #@! TF.FileFunction,Plated,1,2,PTH
FMAT,2
INCH
T1C0.0315
T2C0.0598
%
G90
G05
T1
X6.8992Y-2.7
X6.6Y-2.95
X5.95Y-2.6
X6.35Y-2.6
X7.1Y-2.7
X7.5Y-2.7
X7.1Y-3.05
X7.5Y-3.05
X5.95Y-2.95
X6.35Y-2.95
X6.5992Y-2.6
X6.5992Y-2.7
X6.8992Y-2.6
X6.6Y-3.05
X6.9Y-2.95
X6.9Y-3.05
T2
X7.9Y-2.55
X7.9Y-2.75
X7.9Y-2.95
X7.9Y-3.15
X5.65Y-2.55
X5.65Y-2.75
X5.65Y-2.95
X5.65Y-3.15
T0
M30
